# xmcd
#
# Track frame offsets:
#	150
#	17687
#	33118
#	59939
#	85174
#	109236
#	129016
#	148269
#	172784
#	199024
#	218733
#
# Disc length: 3211 seconds
#
# Revision: 1
# Processed by: cddbd v1.5.1PL2 Copyright (c) Steve Scherf et al.
# Submitted via: EasyCDDAExtractor 9.0.0.1
#
DISCID=930c890b
DTITLE=Blue Oyster Cult - Redondo Beach 17-03-93 Disc 1
DYEAR=1993
DGENRE=Hard Rock
TTITLE0=Stairway To The Stars
TTITLE1=Dr Music
TTITLE2=Dominance And Submission
TTITLE3=Before The Kiss
TTITLE4=ETI
TTITLE5=Demon's Kiss
TTITLE6=Teen Archer
TTITLE7=Joan Crawford
TTITLE8=Cities On Flame
TTITLE9=Still Burning
TTITLE10=I Love The Night
EXTD=
EXTT0=
EXTT1=
EXTT2=
EXTT3=
EXTT4=
EXTT5=
EXTT6=
EXTT7=
EXTT8=
EXTT9=
EXTT10=
PLAYORDER=
